<svg width="295" height="41" viewBox="0 0 295 41" fill="none" xmlns="http://www.w3.org/2000/svg">
<path d="M22.4117 31L18.9717 22.16H7.65173L4.25173 31H0.611725L11.7717 2.32H15.0117L26.1317 31H22.4117ZM14.6917 10.32C14.6117 10.1067 14.4784 9.72 14.2917 9.16C14.1051 8.6 13.9184 8.02667 13.7317 7.44C13.5717 6.82666 13.4384 6.36 13.3317 6.04C13.1984 6.57333 13.0517 7.12 12.8917 7.68C12.7584 8.21333 12.6117 8.70667 12.4517 9.16C12.3184 9.61333 12.1984 10 12.0917 10.32L8.85173 18.96H17.8917L14.6917 10.32ZM43.9186 28.52C44.4519 28.52 44.9986 28.48 45.5586 28.4C46.1186 28.2933 46.5719 28.1867 46.9186 28.08V30.76C46.5453 30.9467 46.0119 31.0933 45.3186 31.2C44.6253 31.3333 43.9586 31.4 43.3186 31.4C42.1986 31.4 41.1586 31.2133 40.1986 30.84C39.2653 30.44 38.5053 29.76 37.9186 28.8C37.3319 27.84 37.0386 26.4933 37.0386 24.76V12.28H33.9986V10.6L37.0786 9.2L38.4786 4.64H40.5586V9.56H46.7586V12.28H40.5586V24.68C40.5586 25.9867 40.8653 26.96 41.4786 27.6C42.1186 28.2133 42.9319 28.52 43.9186 28.52ZM81.9317 9.16C84.3584 9.16 86.1717 9.78667 87.3717 11.04C88.5717 12.2667 89.1717 14.2667 89.1717 17.04V31H85.6917V17.2C85.6917 15.52 85.3317 14.2533 84.6117 13.4C83.9184 12.5467 82.8251 12.12 81.3317 12.12C79.2517 12.12 77.7584 12.72 76.8517 13.92C75.9717 15.12 75.5317 16.8667 75.5317 19.16V31H72.0517V17.2C72.0517 16.08 71.8917 15.1467 71.5717 14.4C71.2517 13.6267 70.7717 13.0533 70.1317 12.68C69.4917 12.3067 68.6651 12.12 67.6517 12.12C66.2117 12.12 65.0784 12.4267 64.2517 13.04C63.4251 13.6267 62.8251 14.4933 62.4517 15.64C62.1051 16.7867 61.9317 18.2 61.9317 19.88V31H58.4117V9.56H61.2517L61.7717 12.48H61.9717C62.4251 11.7333 62.9717 11.12 63.6117 10.64C64.2784 10.1333 65.0117 9.76 65.8117 9.52C66.6117 9.28 67.4384 9.16 68.2917 9.16C69.9451 9.16 71.3184 9.45333 72.4117 10.04C73.5317 10.6267 74.3451 11.5333 74.8517 12.76H75.0517C75.7717 11.5333 76.7451 10.6267 77.9717 10.04C79.2251 9.45333 80.5451 9.16 81.9317 9.16ZM121.635 20.24C121.635 22.0267 121.395 23.6133 120.915 25C120.461 26.36 119.795 27.52 118.915 28.48C118.061 29.44 117.008 30.1733 115.755 30.68C114.528 31.16 113.155 31.4 111.635 31.4C110.221 31.4 108.915 31.16 107.715 30.68C106.515 30.1733 105.475 29.44 104.595 28.48C103.715 27.52 103.021 26.36 102.515 25C102.035 23.6133 101.795 22.0267 101.795 20.24C101.795 17.8667 102.195 15.8667 102.995 14.24C103.795 12.5867 104.941 11.3333 106.435 10.48C107.928 9.6 109.701 9.16 111.755 9.16C113.701 9.16 115.408 9.6 116.875 10.48C118.368 11.3333 119.528 12.5867 120.355 14.24C121.208 15.8667 121.635 17.8667 121.635 20.24ZM105.435 20.24C105.435 21.92 105.648 23.3867 106.075 24.64C106.528 25.8667 107.221 26.8133 108.155 27.48C109.088 28.1467 110.275 28.48 111.715 28.48C113.155 28.48 114.341 28.1467 115.275 27.48C116.208 26.8133 116.888 25.8667 117.315 24.64C117.768 23.3867 117.995 21.92 117.995 20.24C117.995 18.5333 117.768 17.08 117.315 15.88C116.861 14.68 116.168 13.76 115.235 13.12C114.328 12.4533 113.141 12.12 111.675 12.12C109.488 12.12 107.901 12.84 106.915 14.28C105.928 15.72 105.435 17.7067 105.435 20.24ZM148.373 25.08C148.373 26.4667 148.027 27.6267 147.333 28.56C146.64 29.4933 145.653 30.2 144.373 30.68C143.093 31.16 141.573 31.4 139.813 31.4C138.32 31.4 137.027 31.28 135.933 31.04C134.867 30.8 133.92 30.4667 133.093 30.04V26.84C133.947 27.2667 134.973 27.6667 136.173 28.04C137.4 28.3867 138.64 28.56 139.893 28.56C141.68 28.56 142.973 28.28 143.773 27.72C144.573 27.1333 144.973 26.36 144.973 25.4C144.973 24.8667 144.827 24.3867 144.533 23.96C144.24 23.5333 143.707 23.1067 142.933 22.68C142.187 22.2533 141.107 21.7733 139.693 21.24C138.307 20.7067 137.12 20.1733 136.133 19.64C135.147 19.1067 134.387 18.4667 133.853 17.72C133.32 16.9733 133.053 16.0133 133.053 14.84C133.053 13.0267 133.787 11.6267 135.253 10.64C136.747 9.65333 138.693 9.16 141.093 9.16C142.4 9.16 143.613 9.29333 144.733 9.56C145.88 9.8 146.947 10.1467 147.933 10.6L146.733 13.4C146.147 13.1333 145.52 12.9067 144.853 12.72C144.213 12.5067 143.56 12.3467 142.893 12.24C142.227 12.1067 141.547 12.04 140.853 12.04C139.413 12.04 138.307 12.28 137.533 12.76C136.787 13.2133 136.413 13.84 136.413 14.64C136.413 15.2267 136.587 15.7333 136.933 16.16C137.28 16.56 137.853 16.96 138.653 17.36C139.48 17.7333 140.573 18.1867 141.933 18.72C143.293 19.2267 144.453 19.7467 145.413 20.28C146.373 20.8133 147.107 21.4667 147.613 22.24C148.12 22.9867 148.373 23.9333 148.373 25.08ZM170.954 9.16C173.594 9.16 175.714 10.08 177.314 11.92C178.941 13.76 179.754 16.5333 179.754 20.24C179.754 22.6667 179.381 24.72 178.634 26.4C177.914 28.0533 176.887 29.3067 175.554 30.16C174.247 30.9867 172.701 31.4 170.914 31.4C169.821 31.4 168.847 31.2533 167.994 30.96C167.141 30.6667 166.407 30.2933 165.794 29.84C165.207 29.36 164.701 28.84 164.274 28.28H164.034C164.087 28.7333 164.141 29.3067 164.194 30C164.247 30.6933 164.274 31.2933 164.274 31.8V40.6H160.754V9.56H163.634L164.114 12.48H164.274C164.701 11.8667 165.207 11.3067 165.794 10.8C166.407 10.2933 167.127 9.89333 167.954 9.6C168.807 9.30667 169.807 9.16 170.954 9.16ZM170.314 12.12C168.874 12.12 167.714 12.4 166.834 12.96C165.954 13.4933 165.314 14.3067 164.914 15.4C164.514 16.4933 164.301 17.88 164.274 19.56V20.24C164.274 22 164.461 23.4933 164.834 24.72C165.207 25.9467 165.834 26.88 166.714 27.52C167.621 28.16 168.847 28.48 170.394 28.48C171.701 28.48 172.767 28.12 173.594 27.4C174.447 26.68 175.074 25.7067 175.474 24.48C175.901 23.2267 176.114 21.8 176.114 20.2C176.114 17.7467 175.634 15.7867 174.674 14.32C173.741 12.8533 172.287 12.12 170.314 12.12ZM196.083 9.52C196.083 10.0267 196.057 10.5467 196.003 11.08C195.977 11.6133 195.937 12.0933 195.883 12.52H196.123C196.577 11.7733 197.15 11.16 197.843 10.68C198.537 10.2 199.31 9.84 200.163 9.6C201.017 9.33333 201.897 9.2 202.803 9.2C204.537 9.2 205.977 9.48 207.123 10.04C208.297 10.5733 209.177 11.4133 209.763 12.56C210.35 13.7067 210.643 15.2 210.643 17.04V31H207.163V17.28C207.163 15.5467 206.777 14.2533 206.003 13.4C205.23 12.5467 204.017 12.12 202.363 12.12C200.763 12.12 199.51 12.4267 198.603 13.04C197.697 13.6267 197.043 14.5067 196.643 15.68C196.27 16.8267 196.083 18.24 196.083 19.92V31H192.563V0.599998H196.083V9.52ZM232.77 9.16C234.61 9.16 236.183 9.56 237.49 10.36C238.823 11.16 239.837 12.2933 240.53 13.76C241.25 15.2 241.61 16.8933 241.61 18.84V20.96H226.93C226.983 23.3867 227.597 25.24 228.77 26.52C229.97 27.7733 231.637 28.4 233.77 28.4C235.13 28.4 236.33 28.28 237.37 28.04C238.437 27.7733 239.53 27.4 240.65 26.92V30C239.557 30.48 238.477 30.8267 237.41 31.04C236.343 31.28 235.077 31.4 233.61 31.4C231.583 31.4 229.783 30.9867 228.21 30.16C226.663 29.3333 225.45 28.1067 224.57 26.48C223.717 24.8267 223.29 22.8133 223.29 20.44C223.29 18.0933 223.677 16.08 224.45 14.4C225.25 12.72 226.357 11.4267 227.77 10.52C229.21 9.61333 230.877 9.16 232.77 9.16ZM232.73 12.04C231.05 12.04 229.717 12.5867 228.73 13.68C227.77 14.7467 227.197 16.24 227.01 18.16H237.93C237.93 16.9333 237.743 15.8667 237.37 14.96C236.997 14.0533 236.423 13.3467 235.65 12.84C234.903 12.3067 233.93 12.04 232.73 12.04ZM264.268 9.16C264.668 9.16 265.095 9.18667 265.548 9.24C266.028 9.26667 266.441 9.32 266.788 9.4L266.348 12.64C266.001 12.56 265.615 12.4933 265.188 12.44C264.788 12.3867 264.401 12.36 264.028 12.36C263.201 12.36 262.415 12.5333 261.668 12.88C260.921 13.2267 260.255 13.72 259.668 14.36C259.081 14.9733 258.615 15.72 258.268 16.6C257.948 17.48 257.788 18.4667 257.788 19.56V31H254.268V9.56H257.148L257.548 13.48H257.708C258.161 12.68 258.708 11.96 259.348 11.32C259.988 10.6533 260.721 10.1333 261.548 9.76C262.375 9.36 263.281 9.16 264.268 9.16ZM285.49 9.16C287.33 9.16 288.903 9.56 290.21 10.36C291.543 11.16 292.557 12.2933 293.25 13.76C293.97 15.2 294.33 16.8933 294.33 18.84V20.96H279.65C279.703 23.3867 280.317 25.24 281.49 26.52C282.69 27.7733 284.357 28.4 286.49 28.4C287.85 28.4 289.05 28.28 290.09 28.04C291.157 27.7733 292.25 27.4 293.37 26.92V30C292.277 30.48 291.197 30.8267 290.13 31.04C289.063 31.28 287.797 31.4 286.33 31.4C284.303 31.4 282.503 30.9867 280.93 30.16C279.383 29.3333 278.17 28.1067 277.29 26.48C276.437 24.8267 276.01 22.8133 276.01 20.44C276.01 18.0933 276.397 16.08 277.17 14.4C277.97 12.72 279.077 11.4267 280.49 10.52C281.93 9.61333 283.597 9.16 285.49 9.16ZM285.45 12.04C283.77 12.04 282.437 12.5867 281.45 13.68C280.49 14.7467 279.917 16.24 279.73 18.16H290.65C290.65 16.9333 290.463 15.8667 290.09 14.96C289.717 14.0533 289.143 13.3467 288.37 12.84C287.623 12.3067 286.65 12.04 285.45 12.04Z" fill="black"/>
</svg>
